<svg width="350" height="414" xmlns="http://www.w3.org/2000/svg">
  <path d="M7.47 391.97a11.853 11.853 0 0 0 15.945-5.234l17.13-33.922c31.726 36.785 80.167 60.316 134.48 60.316 54.308 0 102.73-23.527 134.48-60.316l17.128 33.922a11.854 11.854 0 1 0 21.16-10.688l-22.602-44.746a154.572 154.572 0 0 0 22.738-74.934h.118v-92.852c0-89.828-77.484-162.67-173.04-162.67-95.555 0-173.04 72.875-173.04 162.71v92.852h.12a154.586 154.586 0 0 0 22.739 74.934L2.244 376.05c-2.95 5.844-.606 12.973 5.234 15.922l-.008-.001Zm18.195-141.53c0-76.633 66.992-138.96 149.34-138.96s149.34 62.328 149.34 138.96c0 76.633-66.992 138.96-149.34 138.96-82.344.004-149.34-62.324-149.34-138.96Zm137.48-225.38v63.102a180.338 180.338 0 0 0-69.32 18.609V47.009a155.82 155.82 0 0 1 69.32-21.949Zm93.031 21.93v59.781a180.347 180.347 0 0 0-69.32-18.59V25.06a155.82 155.82 0 0 1 69.32 21.949v-.019Zm68.156 121.22h.004a167.272 167.272 0 0 0-44.453-47.176V64.749c27.422 25.207 44.449 60.195 44.449 98.781v4.68ZM70.122 64.75v56.305a167.216 167.216 0 0 0-44.453 47.176v-4.684c0-38.62 17.031-73.59 44.453-98.797Z" fill="#000080" fill-rule="nonzero"/>
</svg>