<svg width="320" height="268" xmlns="http://www.w3.org/2000/svg">
  <path d="M148.42 227.68v27.66-.004c0 6.547 5.309 11.855 11.855 11.855s11.852-5.309 11.852-11.855V227.66c82.262-3.832 147.08-46.27 147.08-98.066 0-51.805-64.836-94.238-147.08-98.07V12.56c0-6.547-5.305-11.855-11.852-11.855-6.547 0-11.855 5.309-11.855 11.855v18.926C65.9 35.157.81 77.673.81 129.59s65.094 94.434 147.61 98.09Zm11.855-135.23c6.547 0 11.852-5.309 11.852-11.852V55.231c33.586 1.7 64.426 10.391 87.992 24.953 30.781 19.023 35.383 39.117 35.383 49.391 0 10.274-4.602 30.383-35.383 49.391-26.375 16.297-61.934 25.27-100.1 25.27v-.008a222.228 222.228 0 0 1-56.602-7.09l24.598-50.418a20.357 20.357 0 0 0 1.016-15.008 20.353 20.353 0 0 0-9.57-11.602l-.278-.156v-.004a20.406 20.406 0 0 0-21.176.317l-61.441 39.176c-10.074-12.13-12.051-23.113-12.051-29.852 0-10.293 4.602-30.383 35.383-49.391 23.707-14.641 54.781-23.352 88.527-24.973l-.004 25.37c0 6.544 5.309 11.853 11.855 11.853h-.001Z" fill="#000080" fill-rule="nonzero"/>
</svg>