<svg width="320" height="338" xmlns="http://www.w3.org/2000/svg">
  <path d="M17.96 173.48c-8.633 11.121-13.215 23.133-13.215 35.344 0 22.168 15.016 43.66 42.258 60.492 27.242 16.832 62.863 26.73 101.43 28.391l-.004 28.289c0 6.547 5.309 11.852 11.855 11.852s11.852-5.305 11.852-11.852v-28.371c38.348-1.738 73.81-11.637 100.89-28.371 27.086-16.734 42.258-38.328 42.258-60.492 0-12.211-4.582-24.199-13.215-35.344v.004a82.337 82.337 0 0 0 10.172-15.547 64.506 64.506 0 0 0 6.973-28.844c0-51.82-64.82-94.234-147.08-98.066v-18.97c0-6.546-5.305-11.851-11.852-11.851-6.548 0-11.855 5.305-11.855 11.852v18.926C65.907 34.598.817 77.112.817 129.03a64.51 64.51 0 0 0 6.972 28.844 82.177 82.177 0 0 0 10.176 15.605h-.005Zm6.559-44.41c0-10.293 4.601-30.383 35.383-49.391 23.707-14.641 54.78-23.352 88.527-24.973l-.004 25.328c0 6.547 5.308 11.855 11.855 11.855 6.546 0 11.852-5.309 11.852-11.855V54.667c33.586 1.7 64.426 10.391 87.992 24.953 30.78 19.023 35.383 39.117 35.383 49.391 0 10.274-4.602 30.383-35.383 49.391-26.375 16.297-61.934 25.27-100.1 25.27v-.004a222.346 222.346 0 0 1-56.66-7.113L128.02 146a20.357 20.357 0 0 0 1.015-15.008 20.353 20.353 0 0 0-9.57-11.602l-.277-.156v-.004a20.406 20.406 0 0 0-21.176.316L36.489 158.78c-9.996-12.09-11.97-23.016-11.97-29.75v.04Z" fill="#000080" fill-rule="nonzero"/>
</svg>