<svg width="352" height="324" xmlns="http://www.w3.org/2000/svg">
  <path d="m331.4 4.16-54.645 54.645c-27.66-13.531-62.684-21.73-100.75-21.73s-73.098 8.102-100.75 21.73L20.63 4.16C15.986-.403 8.532-.367 3.935 4.238-.667 8.844-.69 16.298 3.876 20.933l50.18 50.238c-25.348 17.781-40.758 41.012-40.758 66.52v85.246c0 55.516 72.82 100.52 162.67 100.52 89.852 0 162.67-45.004 162.67-100.52l.004-85.246c0-25.523-15.41-48.797-40.758-66.52l50.238-50.238h.004c4.567-4.637 4.543-12.09-.058-16.695-4.598-4.605-12.051-4.64-16.695-.078h.027Zm-16.438 133.53c0 10.609-4.723 31.352-36.391 50.91-27.027 16.695-63.438 25.898-102.55 25.898-39.098 0-75.527-9.207-102.55-25.898-31.609-19.578-36.391-40.301-36.391-50.91 0-10.609 4.504-30.324 34.117-49.391l51.918 51.918h.008a11.847 11.847 0 0 0 8.402 3.535 11.848 11.848 0 0 0 11.895-11.906 11.84 11.84 0 0 0-3.543-8.402L93.135 76.663c23.945-10.254 52.609-15.805 82.977-15.805 30.363 0 58.934 5.53 82.977 15.805l-46.984 46.723a11.838 11.838 0 0 0-3.543 8.398c-.016 3.16 1.23 6.2 3.464 8.434a11.857 11.857 0 0 0 16.832-.059l51.918-51.918c29.672 19.043 34.195 39.098 34.195 49.449h-.009Zm-127.11 161.76.004-61.539a239.985 239.985 0 0 0 67.582-12.508v60a209.747 209.747 0 0 1-67.582 14.047h-.004Zm-91.293-14.027.004-60.02a239.983 239.983 0 0 0 67.582 12.508v61.52a209.725 209.725 0 0 1-67.562-14.027l-.024.019Zm-59.5-95.461a137.743 137.743 0 0 0 35.816 25.445v58.062c-31.137-19.461-35.816-40.004-35.816-50.535v-32.972Zm242.09 25.445h-.004a137.766 137.766 0 0 0 35.816-25.445v32.973c0 10.551-4.684 31.074-35.816 50.535l.004-58.063Z" fill="#000080" fill-rule="nonzero"/>
</svg>