<svg width="284" height="316" xmlns="http://www.w3.org/2000/svg">
  <path d="M283.51 87.81C283.51 39.505 220.155.349 142 .349 63.848.349.49 39.505.49 87.81v140.41c0 48.305 63.355 87.461 141.51 87.461 78.152 0 141.51-39.156 141.51-87.461V87.81Zm-259.32 0c0-8.594 3.953-25.426 30.207-41.664 22.699-14.047 54.547-22.09 87.598-22.09s64.898 8.043 87.598 22.066C255.866 62.36 259.8 79.212 259.8 87.786c0 8.574-3.953 25.426-30.207 41.664a112.062 112.062 0 0 1-8.457 4.723v.004a11.825 11.825 0 0 0-7.465 3.476c-20.625 8.91-45.832 13.828-71.676 13.828-32.973 0-64.898-8.039-87.598-22.066C28.124 113.235 24.19 96.403 24.19 87.81Zm46.586 190.48c.246-.96.371-1.95.375-2.941v-111.86a206.563 206.563 0 0 0 57.707 11.359v116.56a179.136 179.136 0 0 1-58.082-13.117v-.001Zm81.789-103.3a209.163 209.163 0 0 0 57.707-10.527v110.93c-.004 1.344.223 2.68.672 3.95a181.974 181.974 0 0 1-58.38 12.405V174.99Zm-128.41-38.742v.004a119.738 119.738 0 0 0 23.254 16.613v112.35c-20.051-14.72-23.254-29.238-23.254-37.004v-91.963Zm209.79 130.79v-112.79a121.715 121.715 0 0 0 25.84-17.977v91.965c.02 8.059-3.457 23.469-25.801 38.797l-.039.005Z" fill="#000080" fill-rule="nonzero"/>
</svg>